HIERARCHY
ROOT Hips
{
    OFFSET 0.000000 0.000000 0.000000
    CHANNELS 6 Xposition Yposition Zposition Zrotation Xrotation Yrotation
    JOINT Spine
    {
        OFFSET -0.000000 0.084000 0.000000
        CHANNELS 3 Zrotation Xrotation Yrotation
        JOINT Spine1
        {
            OFFSET -0.000000 0.216247 0.000000
            CHANNELS 3 Zrotation Xrotation Yrotation
            JOINT Neck
            {
                OFFSET -0.000000 0.215359 0.019578
                CHANNELS 3 Zrotation Xrotation Yrotation
                JOINT Head
                {
                    OFFSET -0.000000 0.143414 -0.020488
                    CHANNELS 3 Zrotation Xrotation Yrotation
                    End Site
                    {
                        OFFSET -0.000000 0.204877 0.000000
                    }
                }
            }
            JOINT LeftShoulder
            {
                OFFSET 0.040109 0.191272 -0.003631
                CHANNELS 3 Zrotation Xrotation Yrotation
                JOINT LeftArm
                {
                    OFFSET 0.138349 0.000000 0.000000
                    CHANNELS 3 Zrotation Xrotation Yrotation
                    JOINT LeftForeArm
                    {
                        OFFSET 0.335349 0.000000 0.000000
                        CHANNELS 3 Zrotation Xrotation Yrotation
                        JOINT LeftHand
                        {
                            OFFSET 0.276368 0.000000 0.000000
                            CHANNELS 3 Zrotation Xrotation Yrotation
                            End Site
                            {
                                OFFSET 0.153658 0.000000 0.000000
                            }
                        }
                    }
                }
            }
            JOINT RightShoulder
            {
                OFFSET -0.041533 0.191272 -0.003631
                CHANNELS 3 Zrotation Xrotation Yrotation
                JOINT RightArm
                {
                    OFFSET -0.138349 0.000000 0.000000
                    CHANNELS 3 Zrotation Xrotation Yrotation
                    JOINT RightForeArm
                    {
                        OFFSET -0.335349 0.000000 0.000000
                        CHANNELS 3 Zrotation Xrotation Yrotation
                        JOINT RightHand
                        {
                            OFFSET -0.276368 0.000000 0.000000
                            CHANNELS 3 Zrotation Xrotation Yrotation
                            End Site
                            {
                                OFFSET -0.153658 0.000000 0.000000
                            }
                        }
                    }
                }
            }
        }
    }
    JOINT LeftUpLeg
    {
        OFFSET 0.102438 0.000000 0.000000
        CHANNELS 3 Zrotation Xrotation Yrotation
        JOINT LeftLeg
        {
            OFFSET -0.000000 -0.442852 0.000000
            CHANNELS 3 Zrotation Xrotation Yrotation
            JOINT LeftFoot
            {
                OFFSET -0.000000 -0.461647 0.000000
                CHANNELS 3 Zrotation Xrotation Yrotation
                JOINT LeftToeBase
                {
                    OFFSET -0.000000 -0.066585 0.153658
                    CHANNELS 3 Zrotation Xrotation Yrotation
                    End Site
                    {
                        OFFSET -0.000000 0.000000 0.040975
                    }
                }
            }
        }
    }
    JOINT RightUpLeg
    {
        OFFSET -0.102438 0.000000 0.000000
        CHANNELS 3 Zrotation Xrotation Yrotation
        JOINT RightLeg
        {
            OFFSET -0.000000 -0.442852 0.000000
            CHANNELS 3 Zrotation Xrotation Yrotation
            JOINT RightFoot
            {
                OFFSET -0.000000 -0.461647 0.000000
                CHANNELS 3 Zrotation Xrotation Yrotation
                JOINT RightToeBase
                {
                    OFFSET -0.000000 -0.066585 0.153658
                    CHANNELS 3 Zrotation Xrotation Yrotation
                    End Site
                    {
                        OFFSET -0.000000 0.000000 0.040975
                    }
                }
            }
        }
    }
}
MOTION
Frames:    4
Frame Time:    0.010000
-0.537724    0.424517    0.152594    -4.913160    0.118743    -8.620538    0.422406    7.090090    -8.946516    -4.299244    11.913730    -2.489025    -39.189075    13.573057    -22.553915    49.042786    -2.066537    -14.581884    1.767894    -1.504957    -8.608822    13.213428    27.307560    -31.984596    -22.189323    -48.434116    -81.790710    7.428806    -59.813797    1.175105    -25.355574    -13.515155    16.897493    6.354137    -23.096300    4.569634    13.577276    -53.038818    87.063934    16.708069    -60.044003    1.814649    154.410583    -57.284004    134.300781    -136.758270    66.876518    123.868217    -0.086580    -17.329941    2.144340    0.000000    0.000000    0.000000    171.664063    -64.485687    170.949677    134.579147    75.830963    -146.596313    -10.197349    -11.967515    -0.082605    0.000000    0.000000    0.000000    
-0.537532    0.424453    0.152527    -4.923284    0.122401    -8.636047    0.417645    7.068393    -8.954609    -4.301489    11.934187    -2.491081    -39.133266    13.528884    -22.555395    49.075504    -1.900002    -14.635934    1.818037    -1.540662    -8.620632    13.188066    27.321871    -32.046249    -22.320595    -48.471348    -81.903297    7.578041    -59.917873    1.310956    -25.279556    -13.539115    16.931164    6.109588    -23.224152    4.826276    13.298468    -53.177963    84.962563    16.952719    -59.762531    2.173939    154.467896    -57.290466    134.307190    -136.716660    66.862762    123.848328    -0.084271    -17.330126    2.150243    0.000000    0.000000    0.000000    171.799957    -64.498268    171.044449    134.514679    75.826134    -146.520615    -10.178939    -11.970911    -0.050799    0.000000    0.000000    0.000000    
-0.537329    0.424407    0.152442    -4.936760    0.126743    -8.650327    0.406766    7.049165    -8.948973    -4.298854    11.951165    -2.489326    -39.075844    13.480151    -22.556244    49.100143    -1.734172    -14.688809    1.871974    -1.582493    -8.644547    13.180575    27.358210    -32.124500    -22.414083    -48.520485    -82.007179    7.751177    -60.010952    1.463634    -25.214996    -13.538137    16.950861    5.858317    -23.278225    5.140151    12.986474    -53.532032    82.321342    17.193283    -59.603111    2.601545    154.532074    -57.299324    134.324997    -136.683762    66.855873    123.836220    -0.085340    -17.327799    2.158551    0.000000    0.000000    0.000000    171.943649    -64.514259    171.145203    134.435349    75.822151    -146.432358    -10.162502    -11.975889    -0.015487    0.000000    0.000000    0.000000    
-0.537125    0.424385    0.152344    -4.952985    0.131572    -8.662866    0.388393    7.033572    -8.931873    -4.286609    11.964928    -2.485034    -39.019947    13.426992    -22.553591    49.108452    -1.581313    -14.733395    1.925157    -1.630979    -8.679907    13.186482    27.413548    -32.210022    -22.465607    -48.576603    -82.098671    7.940118    -60.086746    1.628219    -25.164097    -13.509030    16.952610    5.598765    -23.262135    5.512670    12.586548    -54.083313    79.216171    17.462002    -59.551552    3.097017    154.600327    -57.310314    134.351151    -136.657272    66.854256    123.830330    -0.088314    -17.322292    2.168685    0.000000    0.000000    0.000000    172.089386    -64.533371    171.244843    134.352264    75.821106    -146.343475    -10.147433    -11.982624    0.021909    0.000000    0.000000    0.000000    
